<?xml version="1.0" encoding="UTF-8"?>
<!DOCTYPE svg PUBLIC "-//W3C//DTD SVG 1.1//EN" "http://www.w3.org/Graphics/SVG/1.1/DTD/svg11.dtd">
<svg xmlns="http://www.w3.org/2000/svg" version="1.1" width="200px" height="200px" style="shape-rendering:geometricPrecision; text-rendering:geometricPrecision; image-rendering:optimizeQuality; fill-rule:evenodd; clip-rule:evenodd" xmlns:xlink="http://www.w3.org/1999/xlink">
<g><path style="opacity:1" fill="#fefefe" d="M -0.5,-0.5 C 66.1667,-0.5 132.833,-0.5 199.5,-0.5C 199.5,37.8333 199.5,76.1667 199.5,114.5C 196.482,114.335 193.482,114.502 190.5,115C 186.682,121.561 188.682,125.228 196.5,126C 194.167,126.333 191.833,126.667 189.5,127C 188.62,128.356 188.286,129.856 188.5,131.5C 192.167,131.5 195.833,131.5 199.5,131.5C 199.5,154.167 199.5,176.833 199.5,199.5C 132.833,199.5 66.1667,199.5 -0.5,199.5C -0.5,132.833 -0.5,66.1667 -0.5,-0.5 Z"/></g>
<g><path style="opacity:1" fill="#84f1c6" d="M 118.5,51.5 C 105.833,59.5 93.1667,67.5 80.5,75.5C 79.5084,75.3284 78.8417,75.6618 78.5,76.5C 70.1639,80.6653 62.1639,85.332 54.5,90.5C 49.6318,93.4338 44.6318,96.1005 39.5,98.5C 39.8222,92.642 39.4889,86.9753 38.5,81.5C 38.3335,72.1607 38.5002,62.8274 39,53.5C 52.0834,45.3744 65.2501,37.3744 78.5,29.5C 91.8605,36.8456 105.194,44.1789 118.5,51.5 Z"/></g>
<g><path style="opacity:1" fill="#53d7d9" d="M 118.5,51.5 C 119.167,51.5 119.5,51.8333 119.5,52.5C 119.682,65.5048 120.015,78.5048 120.5,91.5C 120.372,93.0898 119.705,94.4231 118.5,95.5C 117.376,94.086 116.376,92.586 115.5,91C 113.613,90.2204 111.946,90.3871 110.5,91.5C 99.8999,87.2012 89.8999,81.8679 80.5,75.5C 93.1667,67.5 105.833,59.5 118.5,51.5 Z"/></g>
<g><path style="opacity:1" fill="#82d7ea" d="M 119.5,52.5 C 132.473,59.6544 145.473,66.8211 158.5,74C 160.153,79.3379 160.82,84.8379 160.5,90.5C 159.5,90.5 158.5,90.5 157.5,90.5C 158.077,94.8691 157.243,98.8691 155,102.5C 153.734,98.6049 153.234,94.6049 153.5,90.5C 151.5,90.5 149.5,90.5 147.5,90.5C 147.335,93.8499 147.502,97.1832 148,100.5C 149.523,102.569 150.357,104.903 150.5,107.5C 154.179,107.94 157.512,107.273 160.5,105.5C 160.5,108.167 160.5,110.833 160.5,113.5C 163.385,113.194 166.052,113.527 168.5,114.5C 164.5,114.5 160.5,114.5 156.5,114.5C 155.518,117.962 155.185,121.629 155.5,125.5C 154.5,125.5 153.5,125.5 152.5,125.5C 152.5,121.833 152.5,118.167 152.5,114.5C 150.833,114.5 149.167,114.5 147.5,114.5C 147.664,117.187 147.497,119.854 147,122.5C 145.653,120.534 144.153,120.201 142.5,121.5C 141.833,119.167 141.167,116.833 140.5,114.5C 138.833,114.5 137.167,114.5 135.5,114.5C 135.175,119.599 135.675,124.599 137,129.5C 138.401,131.192 140.234,131.859 142.5,131.5C 143.349,124.977 144.682,124.977 146.5,131.5C 137.752,135.375 129.419,140.042 121.5,145.5C 121.5,140.833 121.5,136.167 121.5,131.5C 125.5,131.5 129.5,131.5 133.5,131.5C 133.768,129.901 133.434,128.568 132.5,127.5C 130.302,126.835 127.969,126.168 125.5,125.5C 127.045,124.548 128.712,124.215 130.5,124.5C 130.5,123.167 130.5,121.833 130.5,120.5C 128.712,120.785 127.045,120.452 125.5,119.5C 127.743,118.526 130.076,118.192 132.5,118.5C 132.5,117.167 132.5,115.833 132.5,114.5C 128.702,113.517 124.702,113.183 120.5,113.5C 120.5,109.5 120.5,105.5 120.5,101.5C 121.513,102.659 121.847,104.659 121.5,107.5C 123.5,107.5 125.5,107.5 127.5,107.5C 127.5,101.833 127.5,96.1667 127.5,90.5C 125.05,90.298 122.717,90.6314 120.5,91.5C 120.015,78.5048 119.682,65.5048 119.5,52.5 Z"/></g>
<g><path style="opacity:1" fill="#52e7bd" d="M 78.5,76.5 C 78.5,83.1667 78.5,89.8333 78.5,96.5C 76.6921,95.0821 76.0254,93.0821 76.5,90.5C 74.8333,90.5 73.1667,90.5 71.5,90.5C 71.5,96.1667 71.5,101.833 71.5,107.5C 73.1667,107.5 74.8333,107.5 76.5,107.5C 76.5,105.833 76.5,104.167 76.5,102.5C 77.5,102.5 78.5,102.5 79.5,102.5C 79.5,106.167 79.5,109.833 79.5,113.5C 76.9407,113.198 74.6074,113.532 72.5,114.5C 72.5,116.167 72.5,117.833 72.5,119.5C 71.3951,118.4 70.0618,117.733 68.5,117.5C 67.7377,115.738 66.4044,114.738 64.5,114.5C 56.5587,110.265 48.5587,105.932 40.5,101.5C 39.6143,100.675 39.281,99.675 39.5,98.5C 44.6318,96.1005 49.6318,93.4338 54.5,90.5C 62.1639,85.332 70.1639,80.6653 78.5,76.5 Z"/></g>
<g><path style="opacity:1" fill="#3ec5c8" d="M 80.5,75.5 C 89.8999,81.8679 99.8999,87.2012 110.5,91.5C 110.5,96.8333 110.5,102.167 110.5,107.5C 109.85,107.196 109.183,106.863 108.5,106.5C 104.833,108.667 101.167,110.833 97.5,113C 99.3817,113.198 101.048,113.698 102.5,114.5C 100.833,114.5 99.1667,114.5 97.5,114.5C 97.8902,118.394 97.2235,122.06 95.5,125.5C 94.8076,124.975 94.3076,124.308 94,123.5C 93.502,120.518 93.3354,117.518 93.5,114.5C 91.5,114.5 89.5,114.5 87.5,114.5C 87.2217,119.339 87.8884,124.006 89.5,128.5C 87.9382,128.267 86.6049,127.6 85.5,126.5C 83.1667,126.5 80.8333,126.5 78.5,126.5C 77.9569,126.44 77.6236,126.107 77.5,125.5C 79.396,124.534 81.396,124.201 83.5,124.5C 83.5,123.167 83.5,121.833 83.5,120.5C 81.396,120.799 79.396,120.466 77.5,119.5C 80.0865,118.52 82.7531,118.187 85.5,118.5C 85.5,117.167 85.5,115.833 85.5,114.5C 81.1667,114.5 76.8333,114.5 72.5,114.5C 74.6074,113.532 76.9407,113.198 79.5,113.5C 79.5,109.833 79.5,106.167 79.5,102.5C 78.5,102.5 77.5,102.5 76.5,102.5C 77.5676,101.566 78.901,101.232 80.5,101.5C 80.5,103.5 80.5,105.5 80.5,107.5C 82.1667,107.5 83.8333,107.5 85.5,107.5C 85.5,101.833 85.5,96.1667 85.5,90.5C 83.8333,90.5 82.1667,90.5 80.5,90.5C 80.9746,93.0821 80.3079,95.0821 78.5,96.5C 78.5,89.8333 78.5,83.1667 78.5,76.5C 78.8417,75.6618 79.5084,75.3284 80.5,75.5 Z"/></g>
<g><path style="opacity:1" fill="#050c0a" d="M 54.5,90.5 C 59.1667,90.5 63.8333,90.5 68.5,90.5C 68.5,92.1667 68.5,93.8333 68.5,95.5C 67.1667,95.5 65.8333,95.5 64.5,95.5C 64.5,99.5 64.5,103.5 64.5,107.5C 62.5,107.5 60.5,107.5 58.5,107.5C 58.5,103.5 58.5,99.5 58.5,95.5C 57.1667,95.5 55.8333,95.5 54.5,95.5C 54.5,93.8333 54.5,92.1667 54.5,90.5 Z"/></g>
<g><path style="opacity:1" fill="#030706" d="M 78.5,96.5 C 80.3079,95.0821 80.9746,93.0821 80.5,90.5C 82.1667,90.5 83.8333,90.5 85.5,90.5C 85.5,96.1667 85.5,101.833 85.5,107.5C 83.8333,107.5 82.1667,107.5 80.5,107.5C 80.5,105.5 80.5,103.5 80.5,101.5C 78.901,101.232 77.5676,101.566 76.5,102.5C 76.5,104.167 76.5,105.833 76.5,107.5C 74.8333,107.5 73.1667,107.5 71.5,107.5C 71.5,101.833 71.5,96.1667 71.5,90.5C 73.1667,90.5 74.8333,90.5 76.5,90.5C 76.0254,93.0821 76.6921,95.0821 78.5,96.5 Z"/></g>
<g><path style="opacity:1" fill="#010202" d="M 89.5,90.5 C 93.5,90.5 97.5,90.5 101.5,90.5C 101.5,91.8333 101.5,93.1667 101.5,94.5C 99.1667,94.5 96.8333,94.5 94.5,94.5C 94.5,95.5 94.5,96.5 94.5,97.5C 96.1667,97.5 97.8333,97.5 99.5,97.5C 99.5,98.8333 99.5,100.167 99.5,101.5C 97.712,101.215 96.0453,101.548 94.5,102.5C 96.7427,103.474 99.076,103.808 101.5,103.5C 101.5,104.833 101.5,106.167 101.5,107.5C 97.5,107.5 93.5,107.5 89.5,107.5C 89.5,101.833 89.5,96.1667 89.5,90.5 Z"/></g>
<g><path style="opacity:1" fill="#070c0d" d="M 120.5,91.5 C 122.717,90.6314 125.05,90.298 127.5,90.5C 127.5,96.1667 127.5,101.833 127.5,107.5C 125.5,107.5 123.5,107.5 121.5,107.5C 121.847,104.659 121.513,102.659 120.5,101.5C 118.549,101.773 117.049,101.107 116,99.5C 115.503,102.146 115.336,104.813 115.5,107.5C 113.833,107.5 112.167,107.5 110.5,107.5C 110.5,102.167 110.5,96.8333 110.5,91.5C 111.946,90.3871 113.613,90.2204 115.5,91C 116.376,92.586 117.376,94.086 118.5,95.5C 119.705,94.4231 120.372,93.0898 120.5,91.5 Z"/></g>
<g><path style="opacity:1" fill="#080c0d" d="M 132.5,90.5 C 135.85,90.335 139.183,90.5017 142.5,91C 143,91.5 143.5,92 144,92.5C 144.802,97.419 144.635,102.252 143.5,107C 135.082,110.963 130.749,108.463 130.5,99.5C 130.269,96.1904 130.935,93.1904 132.5,90.5 Z"/></g>
<g><path style="opacity:1" fill="#080d0e" d="M 160.5,90.5 C 161.777,91.6936 162.444,93.3603 162.5,95.5C 162.418,98.9798 161.752,102.313 160.5,105.5C 157.512,107.273 154.179,107.94 150.5,107.5C 150.357,104.903 149.523,102.569 148,100.5C 147.502,97.1832 147.335,93.8499 147.5,90.5C 149.5,90.5 151.5,90.5 153.5,90.5C 153.234,94.6049 153.734,98.6049 155,102.5C 157.243,98.8691 158.077,94.8691 157.5,90.5C 158.5,90.5 159.5,90.5 160.5,90.5 Z"/></g>
<g><path style="opacity:1" fill="#090909" d="M 165.5,90.5 C 169.5,90.5 173.5,90.5 177.5,90.5C 178.244,93.9496 176.91,95.6162 173.5,95.5C 173.5,98.1667 173.5,100.833 173.5,103.5C 174.833,103.5 176.167,103.5 177.5,103.5C 177.5,104.833 177.5,106.167 177.5,107.5C 173.5,107.5 169.5,107.5 165.5,107.5C 165.5,106.167 165.5,104.833 165.5,103.5C 166.5,103.5 167.5,103.5 168.5,103.5C 168.5,100.833 168.5,98.1667 168.5,95.5C 167.5,95.5 166.5,95.5 165.5,95.5C 165.5,93.8333 165.5,92.1667 165.5,90.5 Z"/></g>
<g><path style="opacity:1" fill="#000000" d="M 190.5,97.5 C 190.5,98.5 190.5,99.5 190.5,100.5C 188.585,100.216 186.919,100.549 185.5,101.5C 187.279,103.344 189.612,104.01 192.5,103.5C 192.5,104.833 192.5,106.167 192.5,107.5C 188.5,107.5 184.5,107.5 180.5,107.5C 180.5,101.833 180.5,96.1667 180.5,90.5C 184.5,90.5 188.5,90.5 192.5,90.5C 192.5,91.8333 192.5,93.1667 192.5,94.5C 190.167,94.5 187.833,94.5 185.5,94.5C 185.5,95.5 185.5,96.5 185.5,97.5C 187.167,97.5 188.833,97.5 190.5,97.5 Z"/></g>
<g><path style="opacity:1" fill="#7ccfe2" d="M 135.5,95.5 C 136.833,95.5 138.167,95.5 139.5,95.5C 139.5,98.1667 139.5,100.833 139.5,103.5C 138.167,103.5 136.833,103.5 135.5,103.5C 135.5,100.833 135.5,98.1667 135.5,95.5 Z"/></g>
<g><path style="opacity:1" fill="#545454" d="M 190.5,97.5 C 191.434,98.5676 191.768,99.901 191.5,101.5C 189.5,101.5 187.5,101.5 185.5,101.5C 186.919,100.549 188.585,100.216 190.5,100.5C 190.5,99.5 190.5,98.5 190.5,97.5 Z"/></g>
<g><path style="opacity:1" fill="#85f0ef" d="M 38.5,81.5 C 39.4889,86.9753 39.8222,92.642 39.5,98.5C 39.281,99.675 39.6143,100.675 40.5,101.5C 48.5587,105.932 56.5587,110.265 64.5,114.5C 61.1667,114.5 57.8333,114.5 54.5,114.5C 54.5,120.167 54.5,125.833 54.5,131.5C 59.5,132.5 61.5,130.5 60.5,125.5C 61.8333,125.5 63.1667,125.5 64.5,125.5C 64.5,127.5 64.5,129.5 64.5,131.5C 66.1667,131.5 67.8333,131.5 69.5,131.5C 69.9677,127.869 69.301,124.535 67.5,121.5C 68.2458,120.264 68.5792,118.93 68.5,117.5C 70.0618,117.733 71.3951,118.4 72.5,119.5C 72.5,123.167 72.5,126.833 72.5,130.5C 76.6344,131.485 80.9677,131.818 85.5,131.5C 85.5,129.833 85.5,128.167 85.5,126.5C 86.6049,127.6 87.9382,128.267 89.5,128.5C 90.6421,130.972 92.6421,131.972 95.5,131.5C 103.136,136.656 111.136,141.323 119.5,145.5C 106.731,153.725 93.7311,161.725 80.5,169.5C 67.3285,161.747 53.9952,154.247 40.5,147C 39.3397,125.244 38.673,103.41 38.5,81.5 Z"/></g>
<g><path style="opacity:1" fill="#50ccdf" d="M 120.5,101.5 C 120.5,105.5 120.5,109.5 120.5,113.5C 124.702,113.183 128.702,113.517 132.5,114.5C 128.5,114.5 124.5,114.5 120.5,114.5C 120.5,119.833 120.5,125.167 120.5,130.5C 120.5,131.167 120.833,131.5 121.5,131.5C 121.5,136.167 121.5,140.833 121.5,145.5C 120.833,145.5 120.167,145.5 119.5,145.5C 111.136,141.323 103.136,136.656 95.5,131.5C 97.451,131.773 98.951,131.107 100,129.5C 102.033,124.705 102.866,119.705 102.5,114.5C 101.048,113.698 99.3817,113.198 97.5,113C 101.167,110.833 104.833,108.667 108.5,106.5C 109.183,106.863 109.85,107.196 110.5,107.5C 112.167,107.5 113.833,107.5 115.5,107.5C 115.336,104.813 115.503,102.146 116,99.5C 117.049,101.107 118.549,101.773 120.5,101.5 Z"/></g>
<g><path style="opacity:1" fill="#0b1111" d="M 64.5,114.5 C 66.4044,114.738 67.7377,115.738 68.5,117.5C 68.5792,118.93 68.2458,120.264 67.5,121.5C 69.301,124.535 69.9677,127.869 69.5,131.5C 67.8333,131.5 66.1667,131.5 64.5,131.5C 64.5,129.5 64.5,127.5 64.5,125.5C 63.1667,125.5 61.8333,125.5 60.5,125.5C 61.5,130.5 59.5,132.5 54.5,131.5C 54.5,125.833 54.5,120.167 54.5,114.5C 57.8333,114.5 61.1667,114.5 64.5,114.5 Z"/></g>
<g><path style="opacity:1" fill="#010202" d="M 72.5,114.5 C 76.8333,114.5 81.1667,114.5 85.5,114.5C 85.5,115.833 85.5,117.167 85.5,118.5C 82.7531,118.187 80.0865,118.52 77.5,119.5C 79.396,120.466 81.396,120.799 83.5,120.5C 83.5,121.833 83.5,123.167 83.5,124.5C 81.396,124.201 79.396,124.534 77.5,125.5C 77.6236,126.107 77.9569,126.44 78.5,126.5C 80.2646,127.461 82.2646,127.795 84.5,127.5C 84.5,128.5 84.5,129.5 84.5,130.5C 80.5,130.5 76.5,130.5 72.5,130.5C 72.5,126.833 72.5,123.167 72.5,119.5C 72.5,117.833 72.5,116.167 72.5,114.5 Z"/></g>
<g><path style="opacity:1" fill="#060c0d" d="M 102.5,114.5 C 102.866,119.705 102.033,124.705 100,129.5C 98.951,131.107 97.451,131.773 95.5,131.5C 92.6421,131.972 90.6421,130.972 89.5,128.5C 87.8884,124.006 87.2217,119.339 87.5,114.5C 89.5,114.5 91.5,114.5 93.5,114.5C 93.3354,117.518 93.502,120.518 94,123.5C 94.3076,124.308 94.8076,124.975 95.5,125.5C 97.2235,122.06 97.8902,118.394 97.5,114.5C 99.1667,114.5 100.833,114.5 102.5,114.5 Z"/></g>
<g><path style="opacity:1" fill="#020405" d="M 114.5,126.5 C 115.806,127.467 116.473,128.801 116.5,130.5C 112.833,130.5 109.167,130.5 105.5,130.5C 105.5,129.167 105.5,127.833 105.5,126.5C 106.5,126.5 107.5,126.5 108.5,126.5C 108.5,123.833 108.5,121.167 108.5,118.5C 107.5,118.5 106.5,118.5 105.5,118.5C 105.5,117.167 105.5,115.833 105.5,114.5C 109.5,114.5 113.5,114.5 117.5,114.5C 117.5,115.833 117.5,117.167 117.5,118.5C 116.167,118.5 114.833,118.5 113.5,118.5C 113.194,121.385 113.527,124.052 114.5,126.5 Z"/></g>
<g><path style="opacity:1" fill="#020304" d="M 132.5,114.5 C 132.5,115.833 132.5,117.167 132.5,118.5C 130.076,118.192 127.743,118.526 125.5,119.5C 127.045,120.452 128.712,120.785 130.5,120.5C 130.5,121.833 130.5,123.167 130.5,124.5C 128.712,124.215 127.045,124.548 125.5,125.5C 127.969,126.168 130.302,126.835 132.5,127.5C 132.5,128.5 132.5,129.5 132.5,130.5C 128.5,130.5 124.5,130.5 120.5,130.5C 120.5,125.167 120.5,119.833 120.5,114.5C 124.5,114.5 128.5,114.5 132.5,114.5 Z"/></g>
<g><path style="opacity:1" fill="#050707" d="M 140.5,114.5 C 140.335,117.518 140.502,120.518 141,123.5C 141.717,122.956 142.217,122.289 142.5,121.5C 144.153,120.201 145.653,120.534 147,122.5C 147.497,119.854 147.664,117.187 147.5,114.5C 149.167,114.5 150.833,114.5 152.5,114.5C 152.5,118.167 152.5,121.833 152.5,125.5C 152.653,129.798 150.653,131.798 146.5,131.5C 144.682,124.977 143.349,124.977 142.5,131.5C 140.234,131.859 138.401,131.192 137,129.5C 135.675,124.599 135.175,119.599 135.5,114.5C 137.167,114.5 138.833,114.5 140.5,114.5 Z"/></g>
<g><path style="opacity:1" fill="#3e6872" d="M 140.5,114.5 C 141.167,116.833 141.833,119.167 142.5,121.5C 142.217,122.289 141.717,122.956 141,123.5C 140.502,120.518 140.335,117.518 140.5,114.5 Z"/></g>
<g><path style="opacity:1" fill="#040404" d="M 156.5,114.5 C 160.5,114.5 164.5,114.5 168.5,114.5C 168.5,115.833 168.5,117.167 168.5,118.5C 165.753,118.187 163.086,118.52 160.5,119.5C 162.396,120.466 164.396,120.799 166.5,120.5C 166.5,121.833 166.5,123.167 166.5,124.5C 164.396,124.201 162.396,124.534 160.5,125.5C 163.086,126.48 165.753,126.813 168.5,126.5C 168.5,127.833 168.5,129.167 168.5,130.5C 164.5,130.5 160.5,130.5 156.5,130.5C 156.5,125.167 156.5,119.833 156.5,114.5 Z"/></g>
<g><path style="opacity:1" fill="#070707" d="M 171.5,114.5 C 175.767,114.203 179.934,114.536 184,115.5C 185.626,120.664 186.46,125.997 186.5,131.5C 184.833,131.5 183.167,131.5 181.5,131.5C 181.5,129.5 181.5,127.5 181.5,125.5C 179.833,125.5 178.167,125.5 176.5,125.5C 176.5,127.5 176.5,129.5 176.5,131.5C 174.833,131.5 173.167,131.5 171.5,131.5C 171.5,125.833 171.5,120.167 171.5,114.5 Z"/></g>
<g><path style="opacity:1" fill="#141414" d="M 199.5,114.5 C 199.5,115.833 199.5,117.167 199.5,118.5C 192.833,119.167 192.833,119.833 199.5,120.5C 199.5,124.167 199.5,127.833 199.5,131.5C 195.833,131.5 192.167,131.5 188.5,131.5C 188.286,129.856 188.62,128.356 189.5,127C 191.833,126.667 194.167,126.333 196.5,126C 188.682,125.228 186.682,121.561 190.5,115C 193.482,114.502 196.482,114.335 199.5,114.5 Z"/></g>
<g><path style="opacity:1" fill="#84f1f0" d="M 60.5,118.5 C 62.4646,118.948 62.7979,119.948 61.5,121.5C 60.6143,120.675 60.281,119.675 60.5,118.5 Z"/></g>
<g><path style="opacity:1" fill="#e9e9e9" d="M 176.5,118.5 C 177.5,118.5 178.5,118.5 179.5,118.5C 179.5,119.5 179.5,120.5 179.5,121.5C 178.5,121.5 177.5,121.5 176.5,121.5C 176.5,120.5 176.5,119.5 176.5,118.5 Z"/></g>
<g><path style="opacity:1" fill="#cbcbcb" d="M 199.5,118.5 C 199.5,119.167 199.5,119.833 199.5,120.5C 192.833,119.833 192.833,119.167 199.5,118.5 Z"/></g>
<g><path style="opacity:1" fill="#234040" d="M 78.5,126.5 C 80.8333,126.5 83.1667,126.5 85.5,126.5C 85.5,128.167 85.5,129.833 85.5,131.5C 80.9677,131.818 76.6344,131.485 72.5,130.5C 76.5,130.5 80.5,130.5 84.5,130.5C 84.5,129.5 84.5,128.5 84.5,127.5C 82.2646,127.795 80.2646,127.461 78.5,126.5 Z"/></g>
<g><path style="opacity:1" fill="#163a3f" d="M 114.5,126.5 C 115.5,126.5 116.5,126.5 117.5,126.5C 117.5,128.167 117.5,129.833 117.5,131.5C 113.298,131.817 109.298,131.483 105.5,130.5C 109.167,130.5 112.833,130.5 116.5,130.5C 116.473,128.801 115.806,127.467 114.5,126.5 Z"/></g>
<g><path style="opacity:1" fill="#274248" d="M 132.5,127.5 C 133.434,128.568 133.768,129.901 133.5,131.5C 129.5,131.5 125.5,131.5 121.5,131.5C 120.833,131.5 120.5,131.167 120.5,130.5C 124.5,130.5 128.5,130.5 132.5,130.5C 132.5,129.5 132.5,128.5 132.5,127.5 Z"/></g>
<g><path style="opacity:1" fill="#3a3f40" d="M 156.5,114.5 C 156.5,119.833 156.5,125.167 156.5,130.5C 160.5,130.5 164.5,130.5 168.5,130.5C 164.366,131.485 160.032,131.818 155.5,131.5C 155.5,129.5 155.5,127.5 155.5,125.5C 155.185,121.629 155.518,117.962 156.5,114.5 Z"/></g>
</svg>
